<svg version="1.0" xmlns="http://www.w3.org/2000/svg" viewBox="0 0 217.000000 382.000000" preserveAspectRatio="xMidYMid meet">

<g transform="translate(0.000000,382.000000) scale(0.100000,-0.100000)" fill="#000000" stroke="none">
<path fill="#2f4c3b" d="M1702 3742 c-45 -31 -127 -100 -183 -152 -56 -52 -108 -98 -115 -103
-7 -4 -88 2 -181 13 -252 31 -509 50 -693 50 -168 0 -382 -20 -457 -43 -35
-10 19 -12 345 -13 305 0 419 -4 537 -17 142 -17 374 -53 380 -59 2 -2 -24
-33 -58 -69 -227 -243 -459 -536 -688 -868 -32 -47 -75 -108 -94 -136 -139
-195 -249 -436 -291 -640 -27 -130 -25 -331 4 -445 91 -350 392 -614 772 -675
212 -34 412 -3 591 91 120 63 255 193 332 317 61 100 71 147 72 328 l1 166 39
54 c51 71 88 147 116 239 32 105 33 264 1 368 -43 139 -133 272 -244 362 -71
57 -237 142 -313 160 l-50 12 75 77 c113 115 178 264 168 385 -9 111 -87 211
-215 273 l-74 36 43 46 c154 162 279 301 270 301 -5 0 -46 -26 -90 -58z m-177
-388 c106 -53 160 -132 153 -223 -6 -82 -41 -145 -133 -237 -61 -62 -103 -93
-179 -134 l-98 -53 5 -35 c9 -52 31 -70 96 -77 313 -34 542 -179 632 -400 34
-85 35 -249 1 -346 -24 -69 -80 -171 -97 -176 -5 -1 -23 21 -40 49 -49 84
-237 266 -327 317 -138 77 -289 99 -441 65 -203 -46 -346 -184 -391 -378 -21
-89 -20 -157 3 -238 47 -171 171 -288 365 -343 92 -27 303 -16 416 20 87 28
193 78 266 127 35 24 64 35 64 26 0 -2 -9 -35 -19 -75 -65 -249 -276 -418
-611 -489 -78 -17 -137 -18 -233 -3 -321 48 -527 213 -620 495 -19 61 -22 89
-22 234 1 178 8 215 74 398 123 337 425 795 884 1344 167 200 142 187 252 132z
m-85 -1456 c138 -33 270 -149 337 -295 l26 -57 -42 -36 c-105 -91 -321 -195
-455 -220 -225 -42 -377 19 -435 173 -60 163 10 312 193 404 97 49 248 62 376
31z"></path>
<path fill="#2f4c3b" d="M320 286 c0 -9 12 -16 28 -18 l27 -3 3 -117 c2 -110 4 -118 22 -118
19 0 20 7 20 120 l0 120 30 0 c20 0 30 5 30 15 0 12 -16 15 -80 15 -63 0 -80
-3 -80 -14z"></path>
<path fill="#2f4c3b" d="M580 165 c0 -113 2 -135 15 -135 12 0 15 14 15 68 0 74 10 92 50 92
40 0 50 -18 50 -92 0 -63 2 -68 21 -68 20 0 21 4 17 76 -3 69 -6 78 -33 101
-23 20 -36 24 -67 20 l-38 -5 0 39 c0 28 -4 39 -15 39 -13 0 -15 -22 -15 -135z"></path>
<path fill="#2f4c3b" d="M1390 160 l0 -130 58 0 c72 0 102 19 102 62 0 18 -9 41 -20 53 -18
20 -19 23 -5 35 8 7 15 27 15 46 0 45 -29 64 -97 64 l-53 0 0 -130z m100 86
c6 -8 10 -25 8 -38 -2 -19 -10 -24 -40 -26 l-38 -3 0 40 c0 38 2 41 29 41 16
0 34 -7 41 -14z m11 -116 c21 -12 25 -40 7 -58 -7 -7 -29 -12 -50 -12 -38 0
-38 0 -38 40 0 38 2 40 31 40 17 0 39 -5 50 -10z"></path>
<path fill="#2f4c3b" d="M1727 258 c-57 -77 -77 -115 -77 -144 0 -64 69 -109 129 -85 37 16
65 65 56 99 -8 34 -43 72 -66 72 -28 0 -32 18 -10 49 25 34 26 41 7 41 -8 0
-26 -15 -39 -32z m53 -96 c43 -34 17 -112 -37 -112 -30 0 -63 34 -63 65 0 30
32 65 59 65 10 0 29 -8 41 -18z"></path>
<path fill="#2f4c3b" d="M897 202 c-78 -82 -4 -205 104 -173 40 12 83 61 54 61 -9 0 -29 -9
-44 -21 -45 -33 -111 -9 -111 40 0 7 33 11 90 11 l90 0 -6 28 c-17 78 -123
110 -177 54z m123 -22 c33 -33 24 -40 -50 -40 -74 0 -84 8 -53 42 22 24 77 24
103 -2z"></path>
</g>
</svg>